<svg width="154" height="49" fill="none" xmlns="http://www.w3.org/2000/svg"><path fill-rule="evenodd" clip-rule="evenodd" d="M9.382 42.494 18 48l8.687-5.666V32.44l-.054.044L6.95 19.432V17.29l11.12-7.513L36 21.986v-8.618L18.07 1 0 13.368V24.3l20.17 13.39-2.1 1.692-8.688-5.665v8.777ZM36 47.84l-6.81-5.585v-11.65l-18.487-12.21 7.367-4.947L36 25.498V47.84Zm-36 0 6.81-5.585V32.2L0 27.572V47.84Z" fill="#AF2727"/><path fill="#AF2727" d="M46 48V1h2v47zM131.427 18.115v-5.028c0-.395-.065-.646-.197-.756-.109-.131-.361-.197-.756-.197h-2.432c-1.993 0-2.99-.975-2.99-2.925V3.786c0-1.928 1.019-2.892 3.056-2.892h3.221c2.037 0 3.056.964 3.056 2.892V6.81h-2.99V4.246c0-.394-.066-.646-.198-.756-.131-.131-.394-.197-.788-.197h-1.381c-.394 0-.657.066-.788.197-.132.11-.198.362-.198.756v4.568c0 .395.066.658.198.79.131.109.394.164.788.164h2.399c2.016 0 3.024.963 3.024 2.892v5.915c0 1.928-1.03 2.892-3.089 2.892h-3.188c-2.038 0-3.057-.964-3.057-2.892v-3.023h2.991v2.563c0 .394.066.657.197.789.132.11.395.164.789.164h1.38c.395 0 .647-.055.756-.164.132-.132.197-.395.197-.789ZM120.676.894h2.727v20.573h-2.99l-4.338-14.854v14.854h-2.728V.894h3.122l4.207 14.428V.894ZM104.685.894h3.648c2.037 0 3.056.964 3.056 2.892v14.79c0 1.927-1.019 2.891-3.056 2.891h-3.648c-2.06 0-3.09-.964-3.09-2.892V3.786c0-1.928 1.03-2.892 3.09-2.892Zm3.746 17.221V4.246c0-.394-.066-.646-.197-.756-.131-.131-.394-.197-.789-.197h-1.906c-.394 0-.657.066-.789.197-.109.11-.164.362-.164.756v13.869c0 .394.055.657.164.789.132.11.395.164.789.164h1.906c.395 0 .658-.055.789-.164.131-.132.197-.395.197-.789ZM100.151 7.336h-3.024V4.18c0-.395-.065-.647-.197-.756-.11-.132-.361-.197-.756-.197h-1.676c-.394 0-.657.065-.788.197-.132.11-.198.361-.198.756v14.033c0 .394.066.657.198.788.131.11.394.165.788.165h1.676c.395 0 .647-.055.756-.165.132-.131.197-.394.197-.788v-3.122h3.024v3.483c0 1.95-1.03 2.925-3.09 2.925h-3.483c-2.038 0-3.056-.975-3.056-2.925V3.786c0-1.928 1.018-2.892 3.056-2.892h3.484c2.06 0 3.089.964 3.089 2.892v3.55ZM81.928 13.152v8.315h-2.957V.894h6.737c2.037 0 3.056.964 3.056 2.892v6.442c0 1.665-.734 2.618-2.202 2.859l3.254 8.38h-3.188l-3.09-8.314h-1.61Zm0-9.859v7.493h2.892c.395 0 .658-.054.79-.164.13-.131.196-.394.196-.789V4.246c0-.394-.065-.646-.197-.756-.131-.131-.394-.197-.788-.197h-2.892ZM72.01 19.068h5.95v2.4h-8.94V.893h8.71v2.4h-5.72v6.342h4.733v2.4h-4.732v7.032ZM64.376 18.115v-5.028c0-.395-.066-.646-.198-.756-.11-.131-.361-.197-.755-.197H60.99c-1.994 0-2.991-.975-2.991-2.925V3.786C58 1.858 59.019.894 61.056.894h3.221c2.038 0 3.056.964 3.056 2.892V6.81h-2.99V4.246c0-.394-.066-.646-.197-.756-.132-.131-.395-.197-.79-.197h-1.38c-.394 0-.657.066-.788.197-.132.11-.197.362-.197.756v4.568c0 .395.065.658.197.79.131.109.394.164.789.164h2.399c2.015 0 3.023.963 3.023 2.892v5.915c0 1.928-1.03 2.892-3.09 2.892h-3.187c-2.038 0-3.056-.964-3.056-2.892v-3.023h2.99v2.563c0 .394.066.657.198.789.131.11.394.164.788.164h1.38c.395 0 .647-.055.756-.164.132-.132.198-.395.198-.789ZM154 33.514h-2.991v-2.728c0-.394-.065-.646-.197-.756-.131-.13-.394-.197-.789-.197h-1.676c-.394 0-.657.066-.788.198-.132.11-.198.361-.198.755V44.82c0 .395.066.658.198.79.131.109.394.163.788.163h1.676c.395 0 .658-.054.789-.164.132-.131.197-.394.197-.789v-5.028h-1.643v-2.3H154v7.69c0 1.95-1.019 2.925-3.056 2.925h-3.517c-2.037 0-3.056-.975-3.056-2.925V30.392c0-1.928 1.019-2.892 3.056-2.892h3.517c2.037 0 3.056.964 3.056 2.892v3.122ZM139.699 27.5h2.728v20.573h-2.991l-4.338-14.855v14.855h-2.728V27.5h3.122l4.207 14.427V27.5ZM127.048 27.5h2.957v20.573h-2.957V27.5ZM126.24 27.5v2.4h-3.451v18.173h-2.957V29.899h-3.451V27.5h9.859Z"/><path d="M110.966 45.674h5.948v2.399h-8.939V27.5h8.709v2.4h-5.718v6.342h4.732v2.399h-4.732v7.033ZM107.259 27.5l-4.338 10.32 4.305 10.253h-3.22l-4.174-10.254L104.07 27.5h3.188ZM96.677 48.073V27.5h2.958v20.573h-2.958ZM87.92 39.758v8.315H84.96V27.5H91.7c2.037 0 3.056.964 3.056 2.892v6.441c0 1.666-.734 2.619-2.202 2.86l3.254 8.38h-3.188l-3.09-8.315h-1.61Zm0-9.859v7.493h2.891c.395 0 .657-.055.789-.164.131-.132.197-.395.197-.789v-5.587c0-.394-.066-.646-.197-.756-.131-.131-.394-.197-.789-.197H87.92ZM81.19 48.073l-.822-4.765H76.03l-.756 4.765h-2.958L75.964 27.5h4.305l3.911 20.573h-2.99Zm-4.798-7.165h3.582L78.1 30.063l-1.708 10.845ZM60.596 48.073H58V27.5h3.254l3.516 12.751L68.286 27.5h3.254v20.573h-2.596V33.02l-2.827 10.582h-2.694l-2.827-10.549v15.019Z" fill="#AF2727"/></svg>