<svg width="180" height="19" viewBox="0 0 180 19" fill="none" xmlns="http://www.w3.org/2000/svg">
<path d="M113.97 18.1737L118.533 0.140137H179.987L175.353 18.1737H113.97Z" fill="#056EA2"/>
<path d="M127.845 8.00718C127.845 9.28399 126.927 10.3498 125.365 10.3498H123.92V13.1777H122.453V5.6646H125.365C126.927 5.6646 127.845 6.73037 127.845 8.00718ZM126.378 8.00718C126.378 7.39516 125.956 6.97307 125.292 6.97307H123.92V9.03074H125.292C125.956 9.03074 126.378 8.61921 126.378 8.00718ZM133.976 13.1777H129.027V5.6646H133.976V6.97307H130.494V8.73528H133.459V10.0437H130.494V11.8693H133.976V13.1777ZM140.175 6.97307H136.915V13.1777H135.448V5.6646H140.175V6.97307ZM147.03 13.1777H145.563V8.3554L142.64 13.1777H141.331V5.6646H142.798V10.4764L145.721 5.6646H147.03V13.1777ZM154.079 9.42117C154.079 10.8563 154.058 11.7004 153.309 12.4496C152.802 12.9561 152.169 13.241 151.304 13.241C150.439 13.241 149.795 12.9561 149.288 12.4496C148.539 11.7004 148.529 10.8563 148.529 9.42117C148.529 7.98608 148.539 7.14191 149.288 6.3927C149.795 5.8862 150.439 5.60129 151.304 5.60129C152.169 5.60129 152.802 5.8862 153.309 6.3927C154.058 7.14191 154.079 7.98608 154.079 9.42117ZM152.612 9.42117C152.612 7.98608 152.517 7.6273 152.243 7.31074C152.032 7.06804 151.705 6.90976 151.304 6.90976C150.903 6.90976 150.576 7.06804 150.354 7.31074C150.08 7.6273 149.995 7.98608 149.995 9.42117C149.995 10.8563 150.08 11.2045 150.354 11.521C150.576 11.7637 150.903 11.9326 151.304 11.9326C151.705 11.9326 152.032 11.7637 152.243 11.521C152.517 11.2045 152.612 10.8563 152.612 9.42117ZM161.049 13.1777H159.583V10.0332H157.039V13.1777H155.573V5.6646H157.039V8.73528H159.583V5.6646H161.049V13.1777ZM170.468 13.1777H169.001V5.6646H170.468V13.1777ZM168.189 10.8352C168.189 12.2069 167.207 13.1777 165.751 13.1777H162.796V5.6646H164.263V8.49258H165.751C167.218 8.49258 168.189 9.46338 168.189 10.8352ZM166.722 10.8352C166.722 10.2231 166.3 9.80105 165.635 9.80105H164.263V11.8693H165.635C166.3 11.8693 166.722 11.4577 166.722 10.8352Z" fill="white"/>
<path d="M8.77814 14.0233V1.51953H0.0761719V14.0233H2.51057V3.5056H6.3527V14.0053L8.77814 14.0233ZM18.1167 9.33381C18.1167 6.33901 16.5296 4.52778 13.4766 4.51433C12.3074 4.49439 11.1474 4.72363 10.0738 5.18681V17.7399H12.423V13.9246C12.8585 14.0604 13.3118 14.1299 13.768 14.1309C16.7 14.1309 18.1167 12.1134 18.1167 9.33381ZM15.7675 9.33381C15.7675 10.7819 15.2295 12.3152 13.5259 12.3376C13.1511 12.3408 12.7784 12.2817 12.423 12.1627V6.53179C12.6334 6.4446 12.8554 6.38871 13.082 6.36591C15.0457 6.12381 15.772 7.58086 15.772 9.32932L15.7675 9.33381ZM104.307 6.82319V14.0278H106.67V6.85458L105.392 7.85435L104.307 6.83664V6.82319ZM101.617 13.5974L100.873 11.8354C100.524 12.0874 100.108 12.2303 99.6781 12.2463C99.2481 12.2622 98.8229 12.1505 98.4563 11.9251C97.6449 11.3647 97.4297 10.2708 97.4207 9.34726C97.4117 8.42371 97.6359 7.3298 98.4429 6.7694C98.8123 6.54704 99.2381 6.43597 99.669 6.44949C100.1 6.46301 100.518 6.60055 100.873 6.84562L101.617 5.15095C100.876 4.69555 100.015 4.47371 99.1467 4.51433C98.3061 4.49271 97.4808 4.74275 96.7935 5.22733C96.1063 5.7119 95.5935 6.40519 95.3315 7.20427C94.8743 8.60708 94.8743 10.1188 95.3315 11.5216C95.5954 12.3195 96.1086 13.0116 96.7954 13.4959C97.4823 13.9801 98.3065 14.231 99.1467 14.2116C100.015 14.2494 100.875 14.0278 101.617 13.5749V13.5974ZM94.1703 8.74202C94.1703 6.21796 92.7581 4.52778 90.1623 4.51433C87.2931 4.51433 85.8539 6.67525 85.845 9.36519C85.845 12.3152 87.5352 14.225 90.5434 14.234C91.723 14.2574 92.8939 14.0281 93.9776 13.5615L93.3051 11.7996C92.4966 12.1881 91.6108 12.3888 90.7138 12.3869C89.3688 12.3869 88.3601 11.7368 88.1404 10.3515L94.1345 9.54003C94.1621 9.27496 94.1741 9.0085 94.1703 8.74202ZM91.8884 8.32957L87.9835 8.86755C88.0193 7.52258 88.5797 6.22244 90.1085 6.22244C91.3863 6.22244 91.9018 7.16393 91.9018 8.32957H91.8884ZM86.2395 3.56389V1.52401H78.5328V3.56389H81.1779V14.0278H83.6123V3.5594L86.2395 3.56389ZM75.9774 14.0233V4.71608H73.6281V12.1941H70.8485V4.71608H68.4993V12.1941H65.7197V4.71608H63.375V14.0233H75.9774ZM62.2721 13.5749V7.82296C62.2721 6.51834 61.8731 5.36167 60.5819 4.84161C59.08 4.22741 56.6008 4.54122 55.1034 5.18233L55.6907 6.7694C56.6546 6.35694 59.098 5.76067 59.8287 6.7694C60.03 7.15504 60.1052 7.59405 60.0439 8.0247C58.4165 8.10988 55.7669 8.31611 54.8837 9.93007C54.6608 10.3899 54.5594 10.8992 54.5892 11.4093C54.619 11.9195 54.7791 12.4135 55.0541 12.8442C56.2377 14.5478 59.5373 14.3909 61.371 13.8888C61.6807 13.8081 61.9812 13.6954 62.2676 13.5525L62.2721 13.5749ZM60.0305 12.3824C59.9205 12.4255 59.8063 12.4571 59.6898 12.4766C58.6138 12.6962 56.7936 12.6604 56.7846 11.1943C56.7737 10.8975 56.8641 10.6058 57.0408 10.3671C57.2176 10.1283 57.4704 9.95686 57.7575 9.88076C58.4952 9.66147 59.2609 9.55121 60.0305 9.55348V12.3824ZM53.9243 14.0412L52.3731 1.53745H49.607L47.4505 8.84514C47.2981 9.37864 47.1905 9.90317 47.0874 10.4501H47.0515C46.9484 9.90766 46.8408 9.37864 46.6884 8.84514L44.514 1.53745H41.7703L40.2146 14.0412H42.4562L43.3529 6.08346C43.4111 5.52306 43.4515 4.9492 43.4739 4.3888H43.5098C43.5098 4.3888 43.5098 4.44708 43.5411 4.54123C43.6443 5.0568 43.7743 5.57686 43.9222 6.08346L46.3073 14.0412H47.8585L50.2256 6.08346C50.3781 5.57237 50.5036 5.06128 50.6112 4.54123C50.6112 4.44708 50.6426 4.39328 50.6426 4.3888H50.674C50.674 4.56813 50.674 4.76539 50.7054 4.94472C50.7054 5.32579 50.7592 5.70239 50.795 6.08346L51.6917 14.0412H53.9243ZM39.578 14.0412L38.3182 4.734H35.4937L33.8036 10.087C33.6802 10.4874 33.5873 10.8965 33.5256 11.3109H33.4897C33.4259 10.8969 33.333 10.4879 33.2118 10.087L31.5037 4.734H28.6882L27.4239 14.0233H29.6341L30.2753 8.19506C30.3266 7.74848 30.355 7.29957 30.3604 6.85009H30.3963C30.4809 7.30402 30.5902 7.75301 30.7236 8.19506L32.5886 14.0233H34.4178L36.2828 8.19506C36.4149 7.75362 36.5198 7.30444 36.5966 6.85009H36.628C36.6504 7.29842 36.6818 7.74674 36.7311 8.19506L37.3722 14.0233L39.578 14.0412ZM27.1504 9.37864C27.1504 6.7425 25.7786 4.54123 22.9362 4.52778C20.0938 4.51433 18.722 6.74698 18.722 9.37864C18.722 12.0103 20.0893 14.2385 22.9362 14.2474C25.7831 14.2564 27.1504 12.0058 27.1504 9.37864ZM24.8012 9.37864C24.8012 10.625 24.5143 12.3376 22.9362 12.351C21.3581 12.3645 21.0712 10.625 21.0712 9.37864C21.0712 8.1323 21.3581 6.40177 22.9362 6.39281C24.5143 6.38384 24.8012 8.13679 24.8012 9.37864Z" fill="#056EA2"/>
<path fill-rule="evenodd" clip-rule="evenodd" d="M105.409 4.84641L105.418 4.85089L111.3 2.02197V2.68998L105.378 7.32116L101.585 3.77492L101.594 3.38488L105.4 4.85538L105.409 4.84641Z" fill="#E60D0D"/>
</svg>
