<svg width="180" height="17" viewBox="0 0 180 17" fill="none" xmlns="http://www.w3.org/2000/svg">
<path d="M104.145 16.687L108.314 0.208008H179.987L175.752 16.687H104.145Z" fill="#AA974B"/>
<path d="M111.705 9.94506H113.036C113.18 10.5043 113.547 10.9189 114.212 10.9189C114.588 10.9189 114.887 10.7743 115.089 10.5429C115.311 10.2922 115.398 10.0029 115.427 9.16402H113.296V7.99728H115.427C115.398 7.18731 115.311 6.89804 115.089 6.64733C114.887 6.41591 114.588 6.27127 114.212 6.27127C113.547 6.27127 113.18 6.6859 113.045 7.24516H111.705C111.946 5.83736 112.939 5.10453 114.222 5.10453C115.003 5.10453 115.581 5.36488 116.054 5.82772C116.738 6.51234 116.748 7.28373 116.748 8.59511C116.748 9.90649 116.738 10.6779 116.054 11.3625C115.581 11.8253 115.003 12.0857 114.222 12.0857C112.949 12.0857 111.946 11.3529 111.705 9.94506ZM119.478 12.0278H118.138V5.16239H119.478V12.0278ZM123.538 12.0278H121.898L119.488 8.43119L121.706 5.16239H123.306L121.002 8.38298L123.538 12.0278ZM129.023 9.91613C128.772 11.3529 127.779 12.0857 126.506 12.0857C125.715 12.0857 125.137 11.8253 124.664 11.3625C123.98 10.6779 123.97 9.90649 123.97 8.59511C123.97 7.28373 123.98 6.51234 124.664 5.82772C125.137 5.36488 125.715 5.10453 126.506 5.10453C127.789 5.10453 128.772 5.83736 129.023 7.27409H127.654C127.519 6.71483 127.171 6.3002 126.506 6.3002C126.14 6.3002 125.841 6.4352 125.648 6.65697C125.397 6.94625 125.31 7.28373 125.31 8.59511C125.31 9.90649 125.397 10.244 125.648 10.5332C125.841 10.755 126.14 10.89 126.506 10.89C127.171 10.89 127.528 10.4754 127.663 9.91613H129.023ZM135.185 12.0278H133.845V6.35806H131.521V12.0278H130.181V5.16239H135.185V12.0278ZM141.304 12.0278H136.782V5.16239H141.304V6.35806H138.122V7.96835H140.832V9.16402H138.122V10.8322H141.304V12.0278ZM147.548 7.30302C147.548 8.46976 146.709 9.44365 145.282 9.44365H143.961V12.0278H142.62V5.16239H145.282C146.709 5.16239 147.548 6.13628 147.548 7.30302ZM146.207 7.30302C146.207 6.74376 145.821 6.35806 145.214 6.35806H143.961V8.23834H145.214C145.821 8.23834 146.207 7.86228 146.207 7.30302ZM153.044 6.35806H151.251V12.0278H149.91V6.35806H148.117V5.16239H153.044V6.35806ZM159.343 12.0278H158.003V7.62122L155.332 12.0278H154.137V5.16239H155.477V9.55936L158.148 5.16239H159.343V12.0278ZM162.97 12.0857C161.716 12.0857 160.713 11.3529 160.472 9.94506H161.803C161.947 10.4947 162.314 10.9189 162.979 10.9189C163.654 10.9189 164.078 10.5429 164.078 9.99327C164.078 9.41472 163.731 9.06759 163.037 9.06759H162.15V7.96835H163.047C163.635 7.96835 163.982 7.65015 163.982 7.10053C163.982 6.57019 163.596 6.25199 162.989 6.25199C162.324 6.25199 161.957 6.69554 161.822 7.24516H160.482C160.723 5.83736 161.726 5.10453 162.999 5.10453C164.339 5.10453 165.322 5.84701 165.322 7.0041C165.322 7.66943 164.966 8.19013 164.426 8.4794C165.033 8.74939 165.419 9.28937 165.419 10.0415C165.419 11.2854 164.387 12.0857 162.97 12.0857ZM172.001 12.0278H170.603L170.198 10.8129H167.759L167.344 12.0278H165.946L168.443 5.16239H169.494L172.001 12.0278ZM169.842 9.68471L169.003 7.18731L168.135 9.68471H169.842Z" fill="white"/>
<path d="M8.02137 12.8741V1.44824H0.0695801V12.8741H2.29411V3.2631H5.80503V12.8577L8.02137 12.8741ZM16.5549 8.58887C16.5549 5.85224 15.1046 4.19716 12.3148 4.18487C11.2464 4.16664 10.1864 4.37613 9.20533 4.79938V16.2703H11.352V12.7839C11.7499 12.908 12.1642 12.9715 12.581 12.9724C15.2603 12.9724 16.5549 11.1289 16.5549 8.58887ZM14.4082 8.58887C14.4082 9.91212 13.9166 11.3132 12.3598 11.3337C12.0174 11.3367 11.6768 11.2827 11.352 11.1739V6.0284C11.5443 5.94873 11.7472 5.89767 11.9542 5.87683C13.7486 5.6556 14.4123 6.98704 14.4123 8.58477L14.4082 8.58887ZM95.3149 6.29469V12.8782H97.4739V6.32337L96.3063 7.23695L95.3149 6.30698V6.29469ZM92.8568 12.4849L92.1768 10.8749C91.8579 11.105 91.4781 11.2357 91.0851 11.2503C90.6921 11.2648 90.3036 11.1627 89.9686 10.9568C89.2271 10.4447 89.0305 9.44509 89.0223 8.60116C89.0141 7.75723 89.2189 6.75762 89.9563 6.24553C90.2939 6.04235 90.683 5.94085 91.0768 5.9532C91.4707 5.96556 91.8526 6.09124 92.1768 6.31518L92.8568 4.76661C92.1799 4.35047 91.3933 4.14775 90.5995 4.18487C89.8313 4.16512 89.0773 4.39359 88.4492 4.8364C87.8212 5.2792 87.3526 5.91273 87.1132 6.64292C86.6955 7.9248 86.6955 9.30621 87.1132 10.5881C87.3544 11.3172 87.8233 11.9496 88.4509 12.3921C89.0786 12.8347 89.8318 13.0639 90.5995 13.0461C91.3931 13.0807 92.1789 12.8782 92.8568 12.4644V12.4849ZM86.0521 8.0481C86.0521 5.74163 84.7617 4.19716 82.3897 4.18487C79.7677 4.18487 78.4527 6.1595 78.4445 8.61755C78.4445 11.3132 79.989 13.0584 82.7379 13.0666C83.8158 13.088 84.8858 12.8785 85.876 12.4521L85.2615 10.8421C84.5227 11.1971 83.7132 11.3805 82.8936 11.3788C81.6645 11.3788 80.7427 10.7847 80.542 9.51883L86.0194 8.77732C86.0446 8.5351 86.0555 8.2916 86.0521 8.0481ZM83.9669 7.6712L80.3986 8.16281C80.4314 6.93378 80.9435 5.74573 82.3405 5.74573C83.5081 5.74573 83.9792 6.60605 83.9792 7.6712H83.9669ZM78.805 3.31636V1.45233H71.7627V3.31636H74.1798V12.8782H76.4043V3.31226L78.805 3.31636ZM69.4275 12.8741V4.36923H67.2808V11.2026H64.7408V4.36923H62.5942V11.2026H60.0542V4.36923H57.9116V12.8741H69.4275ZM56.9038 12.4644V7.20827C56.9038 6.01612 56.5392 4.95916 55.3593 4.48393C53.9869 3.92268 51.7214 4.20944 50.3531 4.79528L50.8897 6.24553C51.7705 5.86863 54.0033 5.32376 54.671 6.24553C54.8549 6.59793 54.9237 6.9991 54.8677 7.39262C53.3806 7.47045 50.9594 7.6589 50.1523 9.13373C49.9486 9.55391 49.8559 10.0193 49.8832 10.4855C49.9104 10.9516 50.0567 11.403 50.308 11.7966C51.3896 13.3534 54.4048 13.21 56.0803 12.7512C56.3634 12.6774 56.6379 12.5745 56.8997 12.4439L56.9038 12.4644ZM54.8554 11.3747C54.7549 11.4141 54.6505 11.4429 54.544 11.4607C53.5608 11.6614 51.8975 11.6287 51.8893 10.289C51.8794 10.0178 51.9619 9.75118 52.1235 9.53304C52.285 9.31491 52.516 9.15821 52.7783 9.08868C53.4524 8.88829 54.1522 8.78753 54.8554 8.78961V11.3747ZM49.2756 12.8905L47.8581 1.46462H45.3305L43.3599 8.14233C43.2206 8.62984 43.1223 9.10915 43.0281 9.60896H42.9953C42.9011 9.11325 42.8028 8.62984 42.6635 8.14233L40.6766 1.46462H38.1693L36.7478 12.8905H38.7961L39.6155 5.61873C39.6688 5.10664 39.7056 4.58225 39.7261 4.07016H39.7589C39.7589 4.07016 39.7589 4.12341 39.7876 4.20945C39.8818 4.68057 40.0006 5.1558 40.1358 5.61873L42.3153 12.8905H43.7327L45.8958 5.61873C46.0351 5.1517 46.1498 4.68467 46.2481 4.20945C46.2481 4.12341 46.2768 4.07426 46.2768 4.07016H46.3055C46.3055 4.23403 46.3055 4.41428 46.3342 4.57815C46.3342 4.92638 46.3833 5.27051 46.4161 5.61873L47.2355 12.8905H49.2756ZM36.166 12.8905L35.0148 4.3856H32.4339L30.8894 9.27712C30.7767 9.643 30.6918 10.0169 30.6354 10.3955H30.6026C30.5443 10.0172 30.4594 9.64352 30.3486 9.27712L28.7878 4.3856H26.215L25.0597 12.8741H27.0794L27.6653 7.54829C27.7122 7.14021 27.7381 6.73 27.7431 6.31927H27.7759C27.8532 6.73407 27.953 7.14435 28.075 7.54829L29.7792 12.8741H31.4507L33.1549 7.54829C33.2757 7.1449 33.3715 6.73445 33.4417 6.31927H33.4704C33.4909 6.72894 33.5195 7.13862 33.5646 7.54829L34.1504 12.8741L36.166 12.8905ZM24.8098 8.62984C24.8098 6.22095 23.5562 4.20945 20.9589 4.19716C18.3616 4.18487 17.108 6.22505 17.108 8.62984C17.108 11.0346 18.3575 13.0707 20.9589 13.0789C23.5603 13.0871 24.8098 11.0305 24.8098 8.62984ZM22.6631 8.62984C22.6631 9.76874 22.401 11.3337 20.9589 11.346C19.5168 11.3583 19.2547 9.76874 19.2547 8.62984C19.2547 7.49095 19.5168 5.9096 20.9589 5.90141C22.401 5.89321 22.6631 7.49504 22.6631 8.62984Z" fill="#056EA2"/>
<path fill-rule="evenodd" clip-rule="evenodd" d="M96.3222 4.48867L96.3304 4.49276L101.705 1.90771V2.51813L96.2935 6.75007L92.8276 3.50954L92.8358 3.15313L96.314 4.49686L96.3222 4.48867Z" fill="#E60D0D"/>
</svg>
