<svg width="100" height="15" viewBox="0 0 100 15" fill="none" xmlns="http://www.w3.org/2000/svg">
<g clip-path="url(#clip0_193_148)">
<path fill-rule="evenodd" clip-rule="evenodd" d="M7.84443 11.4781V0.223999H0.0102539V11.4781H2.18642V2.02714H5.6061V11.4781H7.84443ZM16.2381 7.25004C16.2381 4.5764 14.8081 2.89763 12.0724 2.89763C11.1398 2.89763 9.83406 3.08415 9.02578 3.5194V14.7735H11.1398V11.3537C11.5128 11.4781 11.948 11.5403 12.3211 11.5403C14.9325 11.5403 16.2381 9.73713 16.2381 7.25004ZM14.1242 7.25004C14.1242 8.55576 13.6268 9.92366 12.1346 9.92366C11.8859 9.92366 11.3885 9.86148 11.1398 9.79931V4.76295C11.3263 4.70077 11.575 4.63859 11.7615 4.63859C13.4403 4.38988 14.1242 5.6956 14.1242 7.25004ZM93.7096 5.01165V11.4781H95.8235V5.01165L94.7044 5.88214L93.7096 5.01165ZM91.2847 11.105L90.6007 9.5506C89.979 9.98583 89.0463 10.048 88.4245 9.61278C87.6784 9.11536 87.4919 8.12051 87.4919 7.31221C87.4919 6.50391 87.6784 5.50907 88.4245 5.01165C89.0463 4.5764 90.0412 4.63858 90.6007 5.07382L91.2847 3.58157C90.6629 3.14633 89.8547 3.02198 89.0462 3.02198C87.4297 3.02198 86.1862 3.95464 85.6267 5.44689C85.1915 6.56609 85.1915 8.18269 85.6267 9.30188C86.1862 10.7941 87.4297 11.7268 89.0462 11.7268C89.8547 11.6646 90.6007 11.5403 91.2847 11.105ZM84.5696 6.75262C84.5696 4.45205 83.3261 2.9598 80.9635 2.9598C78.4142 2.9598 77.1086 4.8873 77.1086 7.31221C77.1086 9.98583 78.6007 11.6646 81.3365 11.6646C82.3313 11.6646 83.5748 11.4781 84.4452 11.0429L83.8235 9.48843C83.1396 9.86148 82.2691 9.98583 81.5231 9.98583C80.2794 9.98583 79.409 9.42624 79.2225 8.18269L84.6318 7.43656C84.5696 7.18786 84.5696 6.93914 84.5696 6.75262ZM82.5178 6.37956L79.036 6.87697C79.036 5.6956 79.5955 4.51424 80.9635 4.51424C82.0826 4.45205 82.5178 5.32254 82.5178 6.37956ZM77.4816 2.08933H75.1189V11.4781H72.9428V2.08933H70.58V0.286175H77.4816V2.08933ZM68.2796 11.4781V3.08415H66.1655V9.79931H63.6786V3.08415H61.5645V9.79931H59.0774V3.08415H56.9635V11.4781H68.2796ZM55.9065 11.0429V5.88214C55.9065 4.70077 55.5335 3.64375 54.4142 3.20851C53.0464 2.64891 50.8081 2.9598 49.5023 3.5194L49.9997 4.94947C50.8703 4.57642 53.0464 4.01682 53.7303 4.94947C53.979 5.26037 53.9168 5.6956 53.9168 6.06867C52.4247 6.13084 50.0619 6.31737 49.2536 7.80963C48.8184 8.55576 48.9428 9.73713 49.378 10.4211C50.4349 11.9755 53.4194 11.789 55.0361 11.3537C55.4713 11.2916 55.72 11.1672 55.9065 11.0429ZM53.9168 9.98583C53.8547 9.98583 53.7303 10.048 53.606 10.048C52.6734 10.2346 50.9947 10.2346 50.9947 8.92883C50.9947 8.30706 51.3055 7.93399 51.8651 7.74746C52.4868 7.49874 53.2329 7.49874 53.9168 7.43656V9.98583ZM48.4454 11.4781L47.0775 0.223999H44.5905L42.6631 6.81479C42.5387 7.31221 42.4144 7.74746 42.3522 8.24488C42.2278 7.74746 42.1655 7.31221 42.0412 6.81479L40.1138 0.223999H37.6267L36.0723 11.4781H38.1242L38.9325 4.3277C38.9947 3.83028 38.9947 3.33286 39.0568 2.83545C39.0568 2.83545 39.0568 2.89763 39.0568 2.9598C39.1812 3.39505 39.2433 3.89245 39.4299 4.3277L41.5438 11.4781H42.9118L45.0257 4.3277C45.15 3.89245 45.2744 3.39505 45.3987 2.9598C45.3987 2.89763 45.3987 2.83545 45.3987 2.83545C45.3987 3.02198 45.3987 3.14633 45.3987 3.33287C45.3987 3.70593 45.4609 4.01682 45.4609 4.3277L46.3935 11.4781H48.4454ZM35.5128 11.4781L34.3936 3.08415H31.8444L30.3522 7.87181C30.2278 8.24487 30.1657 8.61794 30.1035 8.991H30.0413C29.9791 8.61794 29.917 8.24487 29.7926 7.87181L28.2381 3.08415H25.689L24.5697 11.4781H26.5594L27.119 6.25519C27.1812 5.88214 27.1812 5.44689 27.1812 5.07382H27.2433C27.3055 5.50907 27.4299 5.88214 27.5542 6.25519L29.2329 11.4781H30.8496L32.5283 6.25519C32.6526 5.88214 32.7148 5.44689 32.777 5.07382C32.777 5.44689 32.8391 5.88214 32.8391 6.25519L33.3987 11.4781H35.5128ZM24.3832 7.31221C24.3832 4.94947 23.1397 2.9598 20.5905 2.9598C18.0413 2.9598 16.7978 4.94947 16.7978 7.31221C16.7978 9.67495 18.0413 11.6646 20.5905 11.6646C23.1397 11.6646 24.3832 9.67495 24.3832 7.31221ZM22.2693 7.25004C22.2693 8.36923 22.0206 9.92366 20.5905 9.92366C19.1604 9.92366 18.9118 8.36923 18.9118 7.25004C18.9118 6.13084 19.1604 4.57642 20.5905 4.57642C21.9584 4.57642 22.2693 6.13084 22.2693 7.25004Z" fill="#006490"/>
<path fill-rule="evenodd" clip-rule="evenodd" d="M94.7042 3.2085L99.9892 0.659241V1.28101L94.642 5.44689L91.2224 2.27585V1.90278L94.7042 3.2085Z" fill="#E6340D"/>
</g>
<defs>
<clipPath id="clip0_193_148">
<rect width="100" height="14.5749" fill="white" transform="translate(0 0.212524)"/>
</clipPath>
</defs>
</svg>
