<svg width="180" height="21" viewBox="0 0 180 21" fill="none" xmlns="http://www.w3.org/2000/svg">
<path d="M123.78 20.2878L128.734 0.702148H179.987L174.954 20.2878H123.78Z" fill="#D88802"/>
<path d="M139.181 14.915H137.588V9.67767L134.413 14.915H132.992V6.75528H134.585V11.9812L137.759 6.75528H139.181V14.915ZM147.032 14.915H145.439V11.4999H142.677V14.915H141.084V6.75528H142.677V10.0902H145.439V6.75528H147.032V14.915ZM155.736 16.7258H154.201V14.915H149.674V16.7258H148.138V13.494H148.906C149.582 12.4511 149.88 10.7206 149.88 8.84106V6.75528H154.797V13.494H155.736V16.7258ZM153.204 13.494V8.17636H151.404V9.35678C151.404 10.9727 151.244 12.3594 150.682 13.494H153.204ZM163.198 14.915H161.605V9.67767L158.431 14.915H157.009V6.75528H158.602V11.9812L161.777 6.75528H163.198V14.915ZM167.748 11.8437L166.408 14.915H164.517L166.201 11.5228C165.342 11.1331 164.803 10.3309 164.803 9.29948C164.803 7.74087 165.915 6.75528 167.485 6.75528H170.648V14.915H169.055V11.8437H167.748ZM169.055 10.434V8.15344H167.565C166.854 8.15344 166.385 8.6004 166.385 9.27656C166.385 9.94125 166.854 10.434 167.565 10.434H169.055Z" fill="white"/>
<path d="M9.53343 15.7918V2.21191H0.0825195V15.7918H2.72643V4.36892H6.89925V15.7723L9.53343 15.7918ZM19.6757 10.6987C19.6757 7.44618 17.9521 5.47907 14.6362 5.46446C13.3665 5.4428 12.1067 5.69178 10.9406 6.19483V19.8283H13.492V15.6847C13.9649 15.8321 14.4573 15.9076 14.9527 15.9087C18.1371 15.9087 19.6757 13.7176 19.6757 10.6987ZM17.1243 10.6987C17.1243 12.2715 16.54 13.9367 14.6898 13.961C14.2828 13.9646 13.878 13.9004 13.492 13.7711V7.65555C13.7205 7.56086 13.9616 7.50017 14.2078 7.4754C16.3404 7.21247 17.1292 8.79492 17.1292 10.6939L17.1243 10.6987ZM113.284 7.97204V15.7967H115.85V8.00613L114.462 9.09194L113.284 7.98665V7.97204ZM110.363 15.3292L109.554 13.4157C109.175 13.6893 108.724 13.8445 108.257 13.8619C107.79 13.8792 107.328 13.7578 106.93 13.5131C106.049 12.9044 105.815 11.7164 105.805 10.7133C105.795 9.71031 106.039 8.52225 106.915 7.91362C107.317 7.67212 107.779 7.55149 108.247 7.56618C108.715 7.58086 109.169 7.73023 109.554 7.9964L110.363 6.15588C109.558 5.66128 108.623 5.42035 107.68 5.46446C106.767 5.44099 105.87 5.71254 105.124 6.23883C104.378 6.76511 103.821 7.51807 103.536 8.38592C103.04 9.90947 103.04 11.5513 103.536 13.0749C103.823 13.9414 104.38 14.6931 105.126 15.219C105.872 15.745 106.767 16.0174 107.68 15.9963C108.623 16.0374 109.557 15.7967 110.363 15.3049V15.3292ZM102.275 10.056C102.275 7.31471 100.741 5.47907 97.922 5.46446C94.8058 5.46446 93.2428 7.81137 93.2331 10.7328C93.2331 13.9367 95.0688 16.0109 98.3359 16.0206C99.617 16.0461 100.889 15.7971 102.066 15.2903L101.335 13.3767C100.457 13.7986 99.4951 14.0167 98.5209 14.0146C97.0602 14.0146 95.9647 13.3086 95.7261 11.804L102.236 10.9227C102.266 10.6348 102.279 10.3454 102.275 10.056ZM99.7966 9.60806L95.5557 10.1923C95.5946 8.73162 96.2033 7.31959 97.8636 7.31959C99.2513 7.31959 99.8113 8.3421 99.8113 9.60806H99.7966ZM93.6616 4.43222V2.21677H85.2916V4.43222H88.1644V15.7967H90.8083V4.42734L93.6616 4.43222ZM82.5162 15.7918V5.68358H79.9648V13.8052H76.946V5.68358H74.3946V13.8052H71.3758V5.68358H68.8292V15.7918H82.5162ZM67.6314 15.3049V9.05786C67.6314 7.64095 67.1981 6.38473 65.7958 5.81991C64.1646 5.15285 61.472 5.49367 59.8457 6.18995L60.4836 7.91362C61.5304 7.46566 64.1841 6.81807 64.9778 7.91362C65.1963 8.33245 65.278 8.80925 65.2115 9.27696C63.444 9.36947 60.5664 9.59345 59.6072 11.3463C59.365 11.8457 59.2549 12.3988 59.2873 12.9529C59.3196 13.5069 59.4935 14.0435 59.7922 14.5112C61.0776 16.3615 64.6613 16.1911 66.6527 15.6457C66.9891 15.5581 67.3155 15.4357 67.6266 15.2806L67.6314 15.3049ZM65.1969 14.0097C65.0774 14.0565 64.9534 14.0908 64.8268 14.112C63.6582 14.3506 61.6814 14.3116 61.6717 12.7194C61.6598 12.397 61.7579 12.0802 61.9499 11.8209C62.1419 11.5617 62.4164 11.3754 62.7283 11.2928C63.5294 11.0546 64.3611 10.9348 65.1969 10.9373V14.0097ZM58.5652 15.8113L56.8805 2.23138H53.8762L51.5342 10.168C51.3687 10.7474 51.2518 11.3171 51.1398 11.9111H51.1009C50.9889 11.322 50.872 10.7474 50.7065 10.168L48.345 2.23138H45.3651L43.6755 15.8113H46.11L47.0839 7.16865C47.1472 6.56001 47.191 5.93677 47.2153 5.32813H47.2543C47.2543 5.32813 47.2543 5.39143 47.2884 5.49368C47.4003 6.05362 47.5416 6.61844 47.7022 7.16865L50.2926 15.8113H51.9773L54.5482 7.16865C54.7137 6.61357 54.8501 6.05849 54.9669 5.49368C54.9669 5.39143 55.001 5.333 55.001 5.32813H55.0351C55.0351 5.52289 55.0351 5.73713 55.0692 5.93189C55.0692 6.34576 55.1276 6.75477 55.1666 7.16865L56.1404 15.8113H58.5652ZM42.9841 15.8113L41.6159 5.70304H38.5483L36.7127 11.5167C36.5787 11.9516 36.4778 12.396 36.4108 12.846H36.3719C36.3025 12.3964 36.2016 11.9522 36.07 11.5167L34.2149 5.70304H31.1571L29.784 15.7918H32.1844L32.8807 9.46198C32.9364 8.97697 32.9673 8.48942 32.9732 8.00126H33.0122C33.1041 8.49425 33.2227 8.98188 33.3676 9.46198L35.3932 15.7918H37.3798L39.4053 9.46198C39.5488 8.98254 39.6627 8.49471 39.7461 8.00126H39.7802C39.8046 8.48816 39.8386 8.97507 39.8922 9.46198L40.5885 15.7918L42.9841 15.8113ZM29.487 10.7474C29.487 7.8844 27.997 5.49368 24.91 5.47907C21.823 5.46446 20.3331 7.88927 20.3331 10.7474C20.3331 13.6056 21.8181 16.0255 24.91 16.0353C28.0019 16.045 29.487 13.6007 29.487 10.7474ZM26.9356 10.7474C26.9356 12.101 26.6239 13.961 24.91 13.9756C23.1961 13.9902 22.8845 12.101 22.8845 10.7474C22.8845 9.39382 23.1961 7.51435 24.91 7.50461C26.6239 7.49488 26.9356 9.39869 26.9356 10.7474Z" fill="#056EA2"/>
<path fill-rule="evenodd" clip-rule="evenodd" d="M114.481 5.82583L114.491 5.8307L120.879 2.7583V3.4838L114.447 8.51357L110.328 4.66212L110.338 4.2385L114.471 5.83557L114.481 5.82583Z" fill="#E60D0D"/>
</svg>
