<svg width="180" height="19" viewBox="0 0 180 19" fill="none" xmlns="http://www.w3.org/2000/svg">
<path d="M111.447 18.3741L115.908 0.739746H179.987L175.455 18.3741H111.447Z" fill="#2C7323"/>
<path d="M119.267 11.5036H120.691C120.846 12.1021 121.238 12.5458 121.95 12.5458C122.353 12.5458 122.672 12.391 122.889 12.1434C123.126 11.8751 123.219 11.5655 123.25 10.6678H120.97V9.41928H123.25C123.219 8.55253 123.126 8.24297 122.889 7.97469C122.672 7.72704 122.353 7.57227 121.95 7.57227C121.238 7.57227 120.846 8.01596 120.702 8.61444H119.267C119.525 7.10793 120.588 6.32372 121.96 6.32372C122.796 6.32372 123.415 6.60233 123.921 7.09761C124.654 7.83023 124.664 8.65571 124.664 10.059C124.664 11.4623 124.654 12.2878 123.921 13.0204C123.415 13.5157 122.796 13.7943 121.96 13.7943C120.598 13.7943 119.525 13.0101 119.267 11.5036ZM127.585 13.7324H126.151V6.38564H127.585V13.7324ZM131.93 13.7324H130.175L127.596 9.88361L129.969 6.38564H131.682L129.216 9.83202L131.93 13.7324ZM137.82 10.059C137.82 11.4623 137.799 12.2878 137.067 13.0204C136.571 13.5157 135.952 13.7943 135.106 13.7943C134.26 13.7943 133.631 13.5157 133.135 13.0204C132.403 12.2878 132.392 11.4623 132.392 10.059C132.392 8.65571 132.403 7.83023 133.135 7.09761C133.631 6.60233 134.26 6.32372 135.106 6.32372C135.952 6.32372 136.571 6.60233 137.067 7.09761C137.799 7.83023 137.82 8.65571 137.82 10.059ZM136.386 10.059C136.386 8.65571 136.293 8.30488 136.025 7.99532C135.818 7.758 135.498 7.60322 135.106 7.60322C134.714 7.60322 134.394 7.758 134.178 7.99532C133.909 8.30488 133.827 8.65571 133.827 10.059C133.827 11.4623 133.909 11.8029 134.178 12.1124C134.394 12.3497 134.714 12.5148 135.106 12.5148C135.498 12.5148 135.818 12.3497 136.025 12.1124C136.293 11.8029 136.386 11.4623 136.386 10.059ZM144.324 13.7324H142.889V7.66513H141.135V9.80107C141.135 12.8863 140.382 13.7324 138.855 13.7324H138.287V12.4529H138.494C139.226 12.4529 139.752 12.0195 139.752 9.71852V6.38564H144.324V13.7324ZM151.222 10.059C151.222 11.4623 151.201 12.2878 150.469 13.0204C149.973 13.5157 149.354 13.7943 148.508 13.7943C147.662 13.7943 147.033 13.5157 146.537 13.0204C145.805 12.2878 145.794 11.4623 145.794 10.059C145.794 8.65571 145.805 7.83023 146.537 7.09761C147.033 6.60233 147.662 6.32372 148.508 6.32372C149.354 6.32372 149.973 6.60233 150.469 7.09761C151.201 7.83023 151.222 8.65571 151.222 10.059ZM149.788 10.059C149.788 8.65571 149.695 8.30488 149.427 7.99532C149.22 7.758 148.9 7.60322 148.508 7.60322C148.116 7.60322 147.796 7.758 147.58 7.99532C147.311 8.30488 147.229 8.65571 147.229 10.059C147.229 11.4623 147.311 11.8029 147.58 12.1124C147.796 12.3497 148.116 12.5148 148.508 12.5148C148.9 12.5148 149.22 12.3497 149.427 12.1124C149.695 11.8029 149.788 11.4623 149.788 10.059ZM157.336 7.66513H154.148V13.7324H152.714V6.38564H157.336V7.66513ZM164.039 13.7324H162.604V9.01686L159.746 13.7324H158.467V6.38564H159.901V11.0909L162.759 6.38564H164.039V13.7324ZM168.136 10.9671L166.928 13.7324H165.226L166.743 10.6781C165.969 10.3273 165.484 9.60501 165.484 8.67635C165.484 7.27303 166.485 6.38564 167.898 6.38564H170.746V13.7324H169.312V10.9671H168.136ZM169.312 9.69788V7.6445H167.971C167.331 7.6445 166.908 8.04692 166.908 8.65571C166.908 9.25418 167.331 9.69788 167.971 9.69788H169.312Z" fill="white"/>
<path d="M8.58376 14.3045V2.07764H0.0744629V14.3045H2.45496V4.01973H6.21203V14.287L8.58376 14.3045ZM17.7156 9.7189C17.7156 6.79041 16.1637 5.01928 13.1782 5.00613C12.0349 4.98663 10.9006 5.2108 9.85073 5.66373V17.9389H12.1479V14.2081C12.5737 14.3408 13.0171 14.4088 13.4631 14.4098C16.3302 14.4098 17.7156 12.437 17.7156 9.7189ZM15.4184 9.7189C15.4184 11.1349 14.8923 12.6343 13.2264 12.6562C12.8599 12.6594 12.4955 12.6016 12.1479 12.4852V6.97892C12.3537 6.89366 12.5708 6.83901 12.7924 6.81671C14.7126 6.57998 15.4228 8.00476 15.4228 9.71451L15.4184 9.7189ZM101.998 7.26387V14.3089H104.308V7.29456L103.058 8.2722L101.998 7.27702V7.26387ZM99.3671 13.8881L98.6394 12.1652C98.2982 12.4115 97.8917 12.5513 97.4712 12.5669C97.0507 12.5825 96.6349 12.4732 96.2764 12.2528C95.4829 11.7048 95.2725 10.6352 95.2637 9.73205C95.255 8.82895 95.4742 7.75927 96.2633 7.21127C96.6245 6.99384 97.0409 6.88523 97.4623 6.89844C97.8838 6.91166 98.2924 7.04616 98.6394 7.2858L99.3671 5.62866C98.6427 5.18334 97.801 4.96641 96.9516 5.00613C96.1295 4.98499 95.3225 5.22949 94.6505 5.70334C93.9784 6.17719 93.477 6.85513 93.2208 7.63651C92.7738 9.00827 92.7738 10.4865 93.2208 11.8583C93.4789 12.6385 93.9807 13.3153 94.6523 13.7888C95.324 14.2624 96.13 14.5077 96.9516 14.4887C97.8007 14.5257 98.6416 14.309 99.3671 13.8661V13.8881ZM92.0853 9.14021C92.0853 6.67204 90.7044 5.01928 88.1661 5.00613C85.3603 5.00613 83.9531 7.11921 83.9443 9.74959C83.9443 12.6342 85.5971 14.5018 88.5387 14.5106C89.6922 14.5335 90.8372 14.3093 91.8968 13.853L91.2392 12.1301C90.4486 12.51 89.5824 12.7063 88.7053 12.7044C87.3901 12.7044 86.4037 12.0687 86.1889 10.7141L92.0503 9.92056C92.0773 9.66136 92.089 9.40079 92.0853 9.14021ZM89.8539 8.7369L86.0354 9.26297C86.0705 7.94777 86.6185 6.67642 88.1135 6.67642C89.3629 6.67642 89.8671 7.59706 89.8671 8.7369H89.8539ZM84.3301 4.07673V2.08201H76.794V4.07673H79.3806V14.3089H81.7611V4.07234L84.3301 4.07673ZM74.2952 14.3045V5.20341H71.998V12.5159H69.2799V5.20341H66.9827V12.5159H64.2646V5.20341H61.9718V14.3045H74.2952ZM60.8934 13.8661V8.2415C60.8934 6.96577 60.5032 5.83471 59.2406 5.32616C57.772 4.72556 55.3476 5.03243 53.8834 5.65934L54.4577 7.21127C55.4002 6.80794 57.7895 6.22487 58.5041 7.21127C58.7008 7.58837 58.7744 8.01767 58.7145 8.43878C57.1231 8.52207 54.5322 8.72373 53.6686 10.302C53.4505 10.7516 53.3514 11.2496 53.3805 11.7485C53.4097 12.2473 53.5662 12.7304 53.8352 13.1515C54.9925 14.8175 58.2191 14.664 60.0122 14.173C60.315 14.0941 60.6089 13.9839 60.889 13.8442L60.8934 13.8661ZM58.7014 12.7C58.5938 12.7422 58.4821 12.773 58.3682 12.7921C57.316 13.0069 55.5361 12.9718 55.5274 11.5382C55.5167 11.248 55.605 10.9627 55.7779 10.7293C55.9508 10.4958 56.1979 10.3282 56.4787 10.2537C57.2 10.0393 57.9488 9.93149 58.7014 9.93371V12.7ZM52.7304 14.3221L51.2135 2.09516H48.5086L46.3999 9.24105C46.2509 9.76274 46.1457 10.2757 46.0448 10.8105H46.0098C45.9089 10.28 45.8037 9.76274 45.6547 9.24105L43.5284 2.09516H40.8454L39.3242 14.3221H41.5162L42.393 6.54052C42.45 5.99252 42.4894 5.43138 42.5113 4.88338H42.5464C42.5464 4.88338 42.5464 4.94037 42.5771 5.03243C42.6779 5.53659 42.8051 6.04513 42.9497 6.54052L45.282 14.3221H46.7989L49.1136 6.54052C49.2627 6.04075 49.3854 5.54097 49.4906 5.03243C49.4906 4.94037 49.5213 4.88776 49.5213 4.88338H49.552C49.552 5.05874 49.552 5.25163 49.5827 5.42699C49.5827 5.79962 49.6353 6.16788 49.6704 6.54052L50.5472 14.3221H52.7304ZM38.7017 14.3221L37.4698 5.22094H34.7079L33.0551 10.4554C32.9345 10.8469 32.8436 11.247 32.7833 11.6522H32.7482C32.6858 11.2474 32.595 10.8475 32.4764 10.4554L30.8061 5.22094H28.053L26.8167 14.3045H28.978L29.6049 8.60537C29.6551 8.16868 29.6829 7.72971 29.6882 7.29018H29.7233C29.806 7.73405 29.9129 8.1731 30.0433 8.60537L31.8671 14.3045H33.6557L35.4794 8.60537C35.6087 8.1737 35.7112 7.73447 35.7863 7.29018H35.817C35.8389 7.72857 35.8696 8.16697 35.9178 8.60537L36.5448 14.3045L38.7017 14.3221ZM26.5493 9.76275C26.5493 7.18497 25.2078 5.03243 22.4284 5.01928C19.6489 5.00613 18.3074 7.18935 18.3074 9.76275C18.3074 12.3361 19.6445 14.515 22.4284 14.5237C25.2122 14.5325 26.5493 12.3318 26.5493 9.76275ZM24.2521 9.76275C24.2521 10.9815 23.9715 12.6562 22.4284 12.6693C20.8852 12.6825 20.6046 10.9815 20.6046 9.76275C20.6046 8.544 20.8852 6.85178 22.4284 6.84302C23.9715 6.83425 24.2521 8.54838 24.2521 9.76275Z" fill="#056EA2"/>
<path fill-rule="evenodd" clip-rule="evenodd" d="M103.075 5.33075L103.084 5.33514L108.836 2.56885V3.22206L103.045 7.75071L99.3359 4.28298L99.3447 3.90158L103.067 5.33952L103.075 5.33075Z" fill="#E60D0D"/>
</svg>
