<svg width="180" height="18" viewBox="0 0 180 18" fill="none" xmlns="http://www.w3.org/2000/svg">
<path d="M103.432 17.2938L107.573 0.927734H179.987L175.782 17.2938H103.432Z" fill="#056EA2"/>
<path d="M117.307 12.7769H115.976V8.80264L114.674 11.3883H113.773L112.461 8.80264V12.7769H111.13V5.95844H112.442L114.223 9.64536L115.995 5.95844H117.307V12.7769ZM123.384 12.7769H118.892V5.95844H123.384V7.14592H120.224V8.74518H122.915V9.93266H120.224V11.5894H123.384V12.7769ZM129.077 7.14592H127.295V12.7769H125.964V7.14592H124.183V5.95844H129.077V7.14592ZM135.055 8.0844C135.055 9.24315 134.222 10.2104 132.805 10.2104H131.493V12.7769H130.162V5.95844H132.805C134.222 5.95844 135.055 6.92566 135.055 8.0844ZM133.724 8.0844C133.724 7.52897 133.341 7.14592 132.738 7.14592H131.493V9.01332H132.738C133.341 9.01332 133.724 8.63984 133.724 8.0844ZM140.982 9.36765C140.982 10.67 140.963 11.4362 140.283 12.1161C139.824 12.5758 139.249 12.8343 138.464 12.8343C137.678 12.8343 137.094 12.5758 136.635 12.1161C135.955 11.4362 135.945 10.67 135.945 9.36765C135.945 8.06525 135.955 7.29914 136.635 6.61921C137.094 6.15954 137.678 5.90098 138.464 5.90098C139.249 5.90098 139.824 6.15954 140.283 6.61921C140.963 7.29914 140.982 8.06525 140.982 9.36765ZM139.651 9.36765C139.651 8.06525 139.565 7.73965 139.316 7.45236C139.124 7.2321 138.828 7.08846 138.464 7.08846C138.1 7.08846 137.803 7.2321 137.602 7.45236C137.353 7.73965 137.276 8.06525 137.276 9.36765C137.276 10.67 137.353 10.9861 137.602 11.2734C137.803 11.4936 138.1 11.6468 138.464 11.6468C138.828 11.6468 139.124 11.4936 139.316 11.2734C139.565 10.9861 139.651 10.67 139.651 9.36765ZM147.018 12.7769H145.687V7.14592H144.059V9.12824C144.059 11.9916 143.36 12.7769 141.943 12.7769H141.416V11.5894H141.607C142.287 11.5894 142.776 11.1872 142.776 9.05162V5.95844H147.018V12.7769ZM153.42 9.36765C153.42 10.67 153.401 11.4362 152.721 12.1161C152.262 12.5758 151.687 12.8343 150.902 12.8343C150.117 12.8343 149.532 12.5758 149.073 12.1161C148.393 11.4362 148.383 10.67 148.383 9.36765C148.383 8.06525 148.393 7.29914 149.073 6.61921C149.532 6.15954 150.117 5.90098 150.902 5.90098C151.687 5.90098 152.262 6.15954 152.721 6.61921C153.401 7.29914 153.42 8.06525 153.42 9.36765ZM152.089 9.36765C152.089 8.06525 152.003 7.73965 151.754 7.45236C151.563 7.2321 151.266 7.08846 150.902 7.08846C150.538 7.08846 150.241 7.2321 150.04 7.45236C149.791 7.73965 149.714 8.06525 149.714 9.36765C149.714 10.67 149.791 10.9861 150.04 11.2734C150.241 11.4936 150.538 11.6468 150.902 11.6468C151.266 11.6468 151.563 11.4936 151.754 11.2734C152.003 10.9861 152.089 10.67 152.089 9.36765ZM159.095 7.14592H156.136V12.7769H154.805V5.95844H159.095V7.14592ZM165.315 12.7769H163.984V8.40043L161.332 12.7769H160.144V5.95844H161.475V10.3253L164.128 5.95844H165.315V12.7769ZM169.118 10.2104L167.997 12.7769H166.417L167.825 9.94223C167.107 9.61663 166.657 8.94628 166.657 8.0844C166.657 6.78201 167.585 5.95844 168.897 5.95844H171.541V12.7769H170.209V10.2104H169.118ZM170.209 9.03247V7.12676H168.964C168.371 7.12676 167.978 7.50024 167.978 8.06525C167.978 8.62068 168.371 9.03247 168.964 9.03247H170.209Z" fill="white"/>
<path d="M7.96642 13.497V2.14941H0.0690918V13.497H2.27839V3.95184H5.76526V13.4807L7.96642 13.497ZM16.4415 9.24113C16.4415 6.52325 15.0012 4.8795 12.2304 4.86729C11.1694 4.8492 10.1166 5.05724 9.14227 5.4776V16.8699H11.2743V13.4075C11.6694 13.5307 12.0809 13.5938 12.4949 13.5946C15.1558 13.5946 16.4415 11.7637 16.4415 9.24113ZM14.3095 9.24113C14.3095 10.5553 13.8213 11.9468 12.2752 11.9672C11.935 11.9701 11.5968 11.9165 11.2743 11.8085V6.6982C11.4652 6.61908 11.6667 6.56836 11.8724 6.54766C13.6544 6.32796 14.3136 7.65027 14.3136 9.23706L14.3095 9.24113ZM94.662 6.96267V13.5011H96.8062V6.99115L95.6466 7.89847L94.662 6.97487V6.96267ZM92.2208 13.1105L91.5454 11.5115C91.2288 11.7401 90.8515 11.8698 90.4612 11.8843C90.0709 11.8988 89.6851 11.7974 89.3524 11.5928C88.616 11.0842 88.4207 10.0915 88.4125 9.25334C88.4044 8.41519 88.6078 7.42243 89.3402 6.91384C89.6755 6.71205 90.0618 6.61125 90.453 6.62352C90.8441 6.63579 91.2234 6.76061 91.5454 6.98302L92.2208 5.44505C91.5485 5.03176 90.7673 4.83043 89.979 4.86729C89.216 4.84768 88.4671 5.07459 87.8434 5.51436C87.2196 5.95413 86.7543 6.58332 86.5165 7.30851C86.1016 8.58161 86.1016 9.95355 86.5165 11.2267C86.756 11.9508 87.2217 12.5788 87.8451 13.0183C88.4684 13.4578 89.2165 13.6855 89.979 13.6679C90.767 13.7022 91.5475 13.5011 92.2208 13.0901V13.1105ZM85.4627 8.70406C85.4627 6.41339 84.1811 4.8795 81.8253 4.86729C79.2214 4.86729 77.9153 6.8284 77.9072 9.26962C77.9072 11.9468 79.4411 13.6801 82.1712 13.6882C83.2417 13.7095 84.3043 13.5014 85.2878 13.0779L84.6775 11.4789C83.9437 11.8315 83.1398 12.0137 82.3258 12.0119C81.1052 12.0119 80.1897 11.4219 79.9903 10.1647L85.4302 9.42829C85.4552 9.18773 85.4661 8.9459 85.4627 8.70406ZM83.3918 8.32975L79.8479 8.81799C79.8805 7.59738 80.3891 6.41746 81.7765 6.41746C82.9361 6.41746 83.404 7.27189 83.404 8.32975H83.3918ZM78.2652 4.00473V2.15347H71.2711V4.00473H73.6717V13.5011H75.881V4.00066L78.2652 4.00473ZM68.952 13.497V5.05039H66.82V11.837H64.2974V5.05039H62.1654V11.837H59.6428V5.05039H57.5149V13.497H68.952ZM56.514 13.0901V7.86999C56.514 6.686 56.1519 5.63628 54.9801 5.16431C53.6171 4.6069 51.3671 4.8917 50.0082 5.47352L50.5412 6.91384C51.4159 6.53952 53.6334 5.99839 54.2966 6.91384C54.4792 7.26383 54.5475 7.66225 54.4919 8.05307C53.0149 8.13038 50.6103 8.31754 49.8088 9.78226C49.6065 10.1996 49.5144 10.6618 49.5415 11.1247C49.5686 11.5877 49.7138 12.036 49.9634 12.4269C51.0375 13.973 54.0321 13.8306 55.6962 13.3749C55.9773 13.3017 56.25 13.1994 56.5099 13.0698L56.514 13.0901ZM54.4797 12.0078C54.3798 12.047 54.2762 12.0756 54.1704 12.0933C53.194 12.2927 51.5421 12.2601 51.5339 10.9296C51.524 10.6602 51.606 10.3955 51.7665 10.1788C51.9269 9.9622 52.1562 9.80657 52.4168 9.73751C53.0863 9.5385 53.7813 9.43843 54.4797 9.4405V12.0078ZM48.9381 13.5133L47.5303 2.16568H45.02L43.0629 8.79765C42.9246 9.28182 42.8269 9.75785 42.7333 10.2542H42.7008C42.6072 9.76192 42.5096 9.28182 42.3712 8.79765L40.3979 2.16568H37.9079L36.4961 13.5133H38.5304L39.3441 6.29133C39.397 5.78275 39.4337 5.26196 39.454 4.75337H39.4865C39.4865 4.75337 39.4865 4.80626 39.515 4.89171C39.6086 5.3596 39.7266 5.83157 39.8609 6.29133L42.0254 13.5133H43.4332L45.5814 6.29133C45.7198 5.8275 45.8337 5.36367 45.9313 4.89171C45.9313 4.80626 45.9598 4.75744 45.9598 4.75337H45.9883C45.9883 4.91612 45.9883 5.09514 46.0168 5.25789C46.0168 5.60372 46.0656 5.9455 46.0982 6.29133L46.9119 13.5133H48.9381ZM35.9183 13.5133L34.775 5.06666H32.2117L30.6778 9.92467C30.5659 10.288 30.4816 10.6594 30.4256 11.0354H30.393C30.3351 10.6597 30.2508 10.2886 30.1408 9.92467L28.5906 5.06666H26.0355L24.8881 13.497H26.894L27.4758 8.20768C27.5223 7.8024 27.5481 7.395 27.5531 6.98708H27.5856C27.6624 7.39903 27.7616 7.8065 27.8826 8.20768L29.5752 13.497H31.2352L32.9278 8.20768C33.0478 7.80706 33.1429 7.39941 33.2126 6.98708H33.2411C33.2615 7.39395 33.2899 7.80081 33.3347 8.20768L33.9165 13.497L35.9183 13.5133ZM24.6399 9.28182C24.6399 6.88943 23.3949 4.89171 20.8153 4.8795C18.2358 4.86729 16.9908 6.8935 16.9908 9.28182C16.9908 11.6701 18.2317 13.6923 20.8153 13.7004C23.399 13.7085 24.6399 11.6661 24.6399 9.28182ZM22.5079 9.28182C22.5079 10.4129 22.2475 11.9672 20.8153 11.9794C19.3832 11.9916 19.1228 10.4129 19.1228 9.28182C19.1228 8.15073 19.3832 6.58021 20.8153 6.57208C22.2475 6.56394 22.5079 8.1548 22.5079 9.28182Z" fill="#056EA2"/>
<path fill-rule="evenodd" clip-rule="evenodd" d="M95.6625 5.16874L95.6706 5.17281L101.009 2.60547V3.2117L95.634 7.41466L92.1919 4.19633L92.2 3.84235L95.6543 5.17688L95.6625 5.16874Z" fill="#E60D0D"/>
</svg>
