<svg width="86" height="46" viewBox="0 0 86 46" fill="none" xmlns="http://www.w3.org/2000/svg">
<g id="logo pmi (1) 3" clip-path="url(#clip0_517_16)">
<path id="Vector" d="M24.2953 12.1568C24.2889 16.5993 21.0892 20.3031 15.6552 20.2953L10.6251 20.2881L10.611 30.1278L5.50747 30.1205L5.54492 3.979L15.6786 3.99352C21.1126 4.00131 24.3017 7.71418 24.2953 12.1568ZM19.1917 12.1494C19.1947 10.0199 17.7282 8.54921 15.4151 8.5459L10.642 8.53906L10.6317 15.6986L15.4048 15.7055C17.7179 15.7088 19.1886 14.279 19.1917 12.1494Z" fill="#0F173E"/>
<path id="Vector_2" d="M53.9005 30.1896L48.7971 30.1823L48.8189 14.9453L43.8112 24.8514L40.3599 24.8465L35.344 14.926L35.3221 30.163L30.2187 30.1557L30.2561 4.01416L35.2862 4.02137L42.0952 18.1668L48.9079 4.04088L53.938 4.04809L53.9005 30.1896Z" fill="#0F173E"/>
<path id="Vector_3" fill-rule="evenodd" clip-rule="evenodd" d="M64.5771 6.64404L64.5434 30.2045L71.4349 30.2144L71.4686 6.65392L67.8162 9.49194L64.5771 6.64404Z" fill="#0F173E"/>
<path id="Vector_4" d="M0.745625 42.3184L0.759521 32.6187L73.3847 32.7227L76.993 36.3413L76.9792 45.9459L4.25893 45.8418L0.745625 42.3184Z" fill="#252B57"/>
<path id="Vector_5" d="M10.7051 42.4298L6.29045 42.4235L6.30005 35.7217L10.7147 35.728L10.713 36.8951L7.60677 36.8907L7.60452 38.4627L10.2496 38.4665L10.2479 39.6336L7.60285 39.6298L7.60051 41.2582L10.7068 41.2627L10.7051 42.4298Z" fill="white"/>
<path id="Vector_6" d="M17.5904 42.4396L16.4232 42.4379L13.7747 38.3208L13.7688 42.4341L12.4604 42.4322L12.47 35.7305L13.6372 35.7321L16.2857 39.8399L16.2916 35.7359L17.6 35.7378L17.5904 42.4396Z" fill="white"/>
<path id="Vector_7" d="M24.3993 39.7011C24.3979 40.6708 24.2465 41.2353 23.7564 41.7429C23.2001 42.3256 22.5786 42.5036 21.8632 42.5026C21.1007 42.5015 20.5363 42.2464 20.0757 41.794C19.4083 41.1247 19.4 40.3717 19.4019 39.0916C19.4037 37.8115 19.4142 37.0585 20.0834 36.3911C20.5453 35.94 21.1105 35.6865 21.8729 35.6876C23.4354 35.6899 24.2153 36.7076 24.3924 37.8373L23.0746 37.8355C22.9249 37.1952 22.5396 36.8559 21.8712 36.8549C21.5136 36.8544 21.231 36.9951 21.033 37.2114C20.7878 37.4934 20.7121 37.8134 20.7103 39.0934C20.7084 40.3735 20.7832 40.703 21.0276 40.986C21.2249 41.2026 21.5071 41.3348 21.8648 41.3353C22.2696 41.3359 22.5898 41.1952 22.7972 40.9602C23.0141 40.7158 23.0993 40.4146 23.0998 40.0663L23.1001 39.8216L21.867 39.8198L21.8686 38.7187L24.4007 38.7223L24.3993 39.7011Z" fill="white"/>
<path id="Vector_8" d="M27.5144 42.4537L26.206 42.4518L26.2156 35.75L27.524 35.7519L27.5144 42.4537Z" fill="white"/>
<path id="Vector_9" d="M34.6746 42.4645L33.5073 42.4628L30.8587 38.3457L30.8528 42.459L29.5446 42.4572L29.5542 35.7554L30.7213 35.757L33.3699 39.8648L33.3758 35.7608L34.6842 35.7627L34.6746 42.4645Z" fill="white"/>
<path id="Vector_10" d="M41.1223 42.4732L36.7077 42.4669L36.7173 35.7651L41.1319 35.7715L41.1303 36.9386L38.024 36.9341L38.0218 38.5062L40.6669 38.5099L40.6652 39.6771L38.0201 39.6733L38.0178 41.3017L41.124 41.3061L41.1223 42.4732Z" fill="white"/>
<path id="Vector_11" d="M47.2923 42.482L42.8776 42.4757L42.8872 35.7739L47.3019 35.7803L47.3002 36.9474L44.194 36.9429L44.1917 38.5149L46.8368 38.5187L46.8352 39.6858L44.19 39.6821L44.1877 41.3105L47.2939 41.3149L47.2923 42.482Z" fill="white"/>
<path id="Vector_12" d="M54.121 42.4923L52.6055 42.4901L51.3009 39.815L50.3598 39.8137L50.3559 42.4869L49.0475 42.485L49.0571 35.7832L51.6833 35.787C53.0481 35.7889 53.8564 36.7219 53.8548 37.8419C53.8535 38.7833 53.2783 39.3661 52.6286 39.6005L54.121 42.4923ZM52.5464 37.8401C52.5472 37.3224 52.1711 36.9548 51.597 36.954L50.3639 36.9522L50.3613 38.7219L51.5944 38.7237C52.1685 38.7245 52.5457 38.3578 52.5464 37.8401Z" fill="white"/>
<path id="Vector_13" d="M56.9851 42.4961L55.6767 42.4943L55.6863 35.7925L56.9947 35.7944L56.9851 42.4961Z" fill="white"/>
<path id="Vector_14" d="M64.1451 42.5065L62.978 42.5048L60.3294 38.3877L60.3235 42.501L59.0151 42.4991L59.0247 35.7974L60.1918 35.799L62.8404 39.9068L62.8463 35.8028L64.1547 35.8047L64.1451 42.5065Z" fill="white"/>
<path id="Vector_15" d="M70.955 39.7675C70.9536 40.7372 70.8024 41.3017 70.312 41.8093C69.7558 42.392 69.1344 42.57 68.4191 42.569C67.6567 42.5679 67.0921 42.3128 66.6316 41.8604C65.9642 41.1911 65.9559 40.4381 65.9578 39.158C65.9596 37.8779 65.97 37.1249 66.6393 36.4575C67.1011 36.0064 67.6664 35.7529 68.4288 35.754C69.9913 35.7563 70.7712 36.7741 70.9483 37.9038L69.6305 37.9019C69.4808 37.2616 69.0955 36.9223 68.4272 36.9213C68.0695 36.9208 67.7869 37.0615 67.5889 37.2778C67.3438 37.5598 67.268 37.8798 67.2662 39.1599C67.2643 40.4399 67.3392 40.7694 67.5835 41.0524C67.7809 41.2691 68.063 41.4012 68.4207 41.4017C68.8254 41.4023 69.1457 41.2616 69.3531 41.0266C69.57 40.7822 69.6551 40.481 69.6556 40.1327L69.656 39.888L68.4229 39.8862L68.4245 38.7851L70.9564 38.7887L70.955 39.7675Z" fill="white"/>
<path id="Vector_16" fill-rule="evenodd" clip-rule="evenodd" d="M68.4274 7.82314L83.6677 0.495666L83.6651 2.28818L68.239 14.2759L58.3974 5.12L58.3989 4.04449L68.4274 7.82314Z" fill="#E60D0D"/>
</g>
<defs>
<clipPath id="clip0_517_16">
<rect width="84.4605" height="45.879" fill="white" transform="translate(0.732178) rotate(0.0820842)"/>
</clipPath>
</defs>
</svg>
