<svg width="180" height="22" viewBox="0 0 180 22" fill="none" xmlns="http://www.w3.org/2000/svg">
<path fill-rule="evenodd" clip-rule="evenodd" d="M168.809 0.131348H137.712C131.558 0.131348 126.523 4.9751 126.523 10.8975C126.523 16.8199 131.557 21.6641 137.712 21.6641H168.809C174.965 21.6641 180 16.8199 180 10.8975C180 4.9751 174.965 0.131348 168.809 0.131348Z" fill="#00ABAB"/>
<path d="M157.655 17.3306H148.88V4.59521H157.617V7.0513H151.817V9.78035H156.745V12.1272H151.817V14.8745H157.655V17.3305V17.3306ZM172.087 16.0837V17.3306V18.7753H169.523V17.3306H169.396H161.844H161.717V18.7753H159.153V17.3306V16.0837V14.8745H160.195C160.599 14.3772 160.915 13.801 161.143 13.1462C161.37 12.4913 161.484 11.5756 161.484 10.399V4.59529H170.628V14.8745H172.087V16.0837ZM163.739 13.8375L163.341 14.8745H167.69V7.0513H164.175V10.3989C164.175 11.1385 164.126 11.8366 164.024 12.4911C163.924 13.122 163.84 13.575 163.739 13.8375ZM137.278 17.3306H134.435V4.59521H137.278L140.595 9.92584L143.912 4.59521H146.622V17.3306H143.779V9.59842L141.429 13.4554H139.609L137.278 9.59842V17.3306H137.278Z" fill="white"/>
<path d="M37.2822 13.3005C37.2822 14.5887 36.7259 15.6164 35.5831 16.4269C34.4554 17.223 32.9217 17.6283 30.997 17.6283C29.8693 17.6283 28.907 17.527 28.065 17.3388C27.238 17.1506 26.4561 16.9046 25.7344 16.6151L25.7344 13.4887L26.1103 13.4887C26.832 14.0387 27.6289 14.4729 28.5311 14.7624C29.4182 15.0664 30.2753 15.2111 31.1023 15.2111C31.3128 15.2111 31.5985 15.1966 31.9293 15.1677C32.2751 15.1387 32.5608 15.0808 32.7713 14.994C33.042 14.8927 33.2525 14.7624 33.4329 14.6032C33.6134 14.444 33.6885 14.2124 33.6885 13.9084C33.6885 13.6189 33.5682 13.3729 33.3126 13.1702C33.057 12.9676 32.6961 12.8084 32.215 12.6926C31.7037 12.5768 31.1775 12.461 30.6061 12.3597C30.0347 12.2584 29.5085 12.1281 29.0123 11.9689C27.8695 11.607 27.0576 11.1294 26.5614 10.5215C26.0652 9.91354 25.8095 9.16088 25.8095 8.249C25.8095 7.03317 26.3659 6.04892 27.4936 5.28178C28.6213 4.51465 30.0648 4.13832 31.8391 4.13832C32.7262 4.13832 33.6134 4.22517 34.4704 4.38438C35.3425 4.55807 36.0943 4.76071 36.7259 5.00677L36.7259 8.00294L36.35 8.00294C35.8086 7.58319 35.1471 7.2358 34.3501 6.94632C33.5682 6.67131 32.7563 6.52657 31.9293 6.52657C31.6436 6.52657 31.3579 6.54104 31.0572 6.58446C30.7715 6.62789 30.5008 6.70026 30.2302 6.80158C29.9896 6.88842 29.7941 7.01869 29.6287 7.19238C29.4633 7.36607 29.3731 7.56871 29.3731 7.8003C29.3731 8.14768 29.5085 8.40822 29.7791 8.59638C30.0498 8.78455 30.561 8.94376 31.3278 9.10298C31.824 9.2043 32.3052 9.29114 32.7563 9.39246C33.2074 9.49378 33.7036 9.60958 34.2298 9.78327C35.2673 10.1162 36.0342 10.5504 36.5154 11.1149C37.0416 11.6649 37.2822 12.4031 37.2822 13.3005ZM49.4315 17.3822L39.673 17.3822L39.673 4.38438L49.4315 4.38438L49.4315 6.9029L43.1313 6.9029L43.1313 9.1464L48.9804 9.1464L48.9804 11.6649L43.1313 11.6649L43.1313 14.8782L49.4315 14.8782L49.4315 17.3822ZM59.9268 8.36479C59.9268 8.03189 59.8516 7.75688 59.7163 7.52529C59.581 7.2937 59.3404 7.10554 58.9946 6.97527C58.754 6.88842 58.4833 6.83053 58.1676 6.80158C57.8518 6.7871 57.4909 6.77263 57.0699 6.77263L55.8069 6.77263L55.8069 10.2754L56.8745 10.2754C57.4308 10.2754 57.8969 10.2464 58.2728 10.203C58.6487 10.1451 58.9645 10.0293 59.2201 9.84117C59.4607 9.653 59.6411 9.46484 59.7464 9.24772C59.8817 9.01613 59.9268 8.72665 59.9268 8.36479ZM65.3699 17.3822L61.1147 17.3822L57.4308 12.6057L55.8219 12.6057L55.8219 17.3678L52.3636 17.3678L52.3636 4.38438L58.1976 4.38438C58.9946 4.38438 59.6862 4.42781 60.2576 4.51465C60.829 4.6015 61.3703 4.78966 61.8665 5.07915C62.3777 5.36863 62.7837 5.74496 63.0694 6.20814C63.3701 6.67131 63.5205 7.25028 63.5205 7.94504C63.5205 8.90034 63.2949 9.68195 62.8288 10.2899C62.3627 10.8978 61.7011 11.4044 60.844 11.7952L65.3699 17.3822ZM72.9933 17.6283C71.9859 17.6283 71.0687 17.4836 70.2116 17.1941C69.3696 16.9046 68.6328 16.4848 68.0163 15.9203C67.3998 15.3558 66.9337 14.6466 66.6029 13.8071C66.2721 12.9676 66.1067 11.9834 66.1067 10.8833C66.1067 9.85564 66.2721 8.91482 66.5879 8.08979C66.9036 7.25028 67.3698 6.52657 67.9863 5.93313C68.5727 5.35416 69.2944 4.90546 70.1665 4.6015C71.0386 4.28306 71.9859 4.12385 73.0084 4.12385C73.5797 4.12385 74.091 4.1528 74.5421 4.21069C74.9932 4.26859 75.4142 4.35543 75.8051 4.45675C76.2111 4.57255 76.572 4.68834 76.9028 4.83308C77.2336 4.96335 77.5192 5.09362 77.7749 5.20941L77.7749 8.3648L77.3689 8.3648C77.2035 8.22005 76.993 8.06084 76.7374 7.87267C76.4817 7.68451 76.1961 7.49634 75.8653 7.30818C75.5345 7.12001 75.1736 6.9608 74.7826 6.83053C74.3917 6.70026 73.9857 6.64236 73.5346 6.64236C73.0384 6.64236 72.5873 6.71473 72.1363 6.85948C71.7002 7.00422 71.2942 7.25028 70.9033 7.59766C70.5424 7.93057 70.2567 8.36479 70.0462 8.91482C69.8207 9.46484 69.7154 10.1307 69.7154 10.9123C69.7154 11.7228 69.8357 12.4031 70.0763 12.9531C70.3169 13.5031 70.6176 13.9374 70.9785 14.2413C71.3393 14.5598 71.7604 14.7914 72.2114 14.9216C72.6625 15.0519 73.1136 15.1243 73.5497 15.1243C73.9707 15.1243 74.3917 15.0664 74.8127 14.9361C75.2337 14.8203 75.6096 14.6466 75.9555 14.444C76.2562 14.2703 76.5269 14.0966 76.7825 13.9084C77.0381 13.7203 77.2486 13.5466 77.414 13.4163L77.7749 13.4163L77.7749 16.5283C77.4441 16.673 77.1133 16.8177 76.8125 16.9335C76.4968 17.0638 76.181 17.1651 75.8352 17.2664C75.3991 17.3822 74.9781 17.4836 74.5872 17.5415C74.1962 17.5994 73.67 17.6283 72.9933 17.6283ZM93.4577 10.8833C93.4577 12.9531 92.8412 14.6032 91.6082 15.819C90.3752 17.0349 88.6762 17.6428 86.4959 17.6428C84.3307 17.6428 82.6165 17.0349 81.3836 15.819C80.1506 14.6032 79.5341 12.9531 79.5341 10.8833C79.5341 8.79902 80.1506 7.14896 81.3836 5.93313C82.6165 4.71729 84.3156 4.10937 86.4959 4.10937C88.6611 4.10937 90.3602 4.71729 91.5932 5.93313C92.8412 7.14896 93.4577 8.79902 93.4577 10.8833ZM88.8416 14.169C89.1723 13.7782 89.428 13.3005 89.5934 12.765C89.7588 12.2294 89.8339 11.5925 89.8339 10.8688C89.8339 10.0872 89.7437 9.42141 89.5483 8.87139C89.3678 8.32137 89.1122 7.88715 88.8115 7.53976C88.4957 7.19238 88.1499 6.93185 87.7439 6.78711C87.3379 6.62789 86.9169 6.55552 86.4809 6.55552C86.0448 6.55552 85.6238 6.62789 85.2328 6.78711C84.8419 6.94632 84.481 7.19238 84.1653 7.53976C83.8645 7.87267 83.624 8.32137 83.4285 8.88587C83.233 9.46484 83.1428 10.1162 83.1428 10.8833C83.1428 11.6649 83.233 12.3163 83.4135 12.8663C83.5939 13.4163 83.8345 13.8505 84.1502 14.1979C84.451 14.5453 84.8118 14.7914 85.2178 14.9506C85.6238 15.1098 86.0448 15.1966 86.4959 15.1966C86.947 15.1966 87.368 15.1098 87.774 14.9506C88.18 14.7769 88.5408 14.5308 88.8416 14.169ZM108.389 17.3822L105.036 17.3822L99.3068 8.46612L99.3068 17.3822L96.1191 17.3822L96.1191 4.38438L100.284 4.38438L105.201 11.8241L105.201 4.38438L108.389 4.38438L108.389 17.3822ZM122.643 13.3005C122.643 14.5887 122.087 15.6164 120.944 16.4269C119.816 17.223 118.283 17.6283 116.358 17.6283C115.23 17.6283 114.268 17.527 113.426 17.3388C112.599 17.1507 111.817 16.9046 111.095 16.6151L111.095 13.4887L111.471 13.4887C112.193 14.0387 112.99 14.4729 113.892 14.7624C114.779 15.0664 115.636 15.2111 116.463 15.2111C116.674 15.2111 116.959 15.1966 117.29 15.1677C117.636 15.1387 117.922 15.0808 118.132 14.994C118.403 14.8927 118.613 14.7624 118.794 14.6032C118.974 14.444 119.049 14.2124 119.049 13.9084C119.049 13.6189 118.929 13.3729 118.673 13.1702C118.418 12.9676 118.057 12.8084 117.576 12.6926C117.065 12.5768 116.538 12.461 115.967 12.3597C115.396 12.2584 114.869 12.1281 114.373 11.9689C113.23 11.607 112.418 11.1294 111.922 10.5215C111.426 9.91354 111.17 9.16088 111.17 8.249C111.17 7.03317 111.727 6.04892 112.854 5.28179C113.982 4.51465 115.426 4.13832 117.2 4.13832C118.087 4.13832 118.974 4.22517 119.831 4.38439C120.703 4.55808 121.455 4.76071 122.087 5.00678L122.087 8.00294L121.711 8.00294C121.17 7.58319 120.508 7.23581 119.711 6.94632C118.929 6.67131 118.117 6.52657 117.29 6.52657C117.004 6.52657 116.719 6.54104 116.418 6.58447C116.132 6.62789 115.862 6.70026 115.591 6.80158C115.35 6.88843 115.155 7.01869 114.99 7.19238C114.824 7.36608 114.734 7.56872 114.734 7.8003C114.734 8.14768 114.869 8.40822 115.14 8.59639C115.411 8.78455 115.922 8.94377 116.689 9.10298C117.185 9.2043 117.666 9.29115 118.117 9.39247C118.568 9.49379 119.064 9.60958 119.591 9.78327C120.628 10.1162 121.395 10.5504 121.876 11.1149C122.402 11.6649 122.643 12.4031 122.643 13.3005Z" fill="black"/>
<path fill-rule="evenodd" clip-rule="evenodd" d="M18.9654 2.86509C22.4989 5.99152 23.6867 11.072 21.5516 15.4721C18.9203 20.9144 12.184 23.2737 6.53037 20.7408C0.876738 18.2078 -1.57417 11.7233 1.05717 6.281C3.19232 1.88084 7.97385 -0.492933 12.7103 0.0860358L12.0336 5.16649L11.9885 5.48492C9.62784 5.19544 7.23707 6.3968 6.1695 8.5824C4.84631 11.3036 6.07928 14.5458 8.9061 15.805C11.7329 17.0788 15.101 15.8919 16.4092 13.1707C17.4768 10.9707 16.8753 8.42319 15.101 6.85997L15.3116 6.64286L18.9654 2.86509Z" fill="#00ABAB"/>
</svg>
