<svg width="100" height="19" viewBox="0 0 100 19" fill="none" xmlns="http://www.w3.org/2000/svg">
<path d="M32.103 11.5444C32.103 12.6318 31.6605 13.4993 30.7515 14.1835C29.8546 14.8556 28.6347 15.1977 27.1037 15.1977C26.2067 15.1977 25.4413 15.1122 24.7716 14.9534C24.1137 14.7945 23.4918 14.5868 22.9177 14.3424V11.7032H23.2167C23.7908 12.1675 24.4247 12.5341 25.1422 12.7784C25.848 13.035 26.5297 13.1572 27.1874 13.1572C27.3549 13.1572 27.5822 13.145 27.8452 13.1206C28.1204 13.0961 28.3476 13.0472 28.515 12.9739C28.7303 12.8884 28.8977 12.7784 29.0412 12.644C29.1847 12.5096 29.2446 12.3141 29.2446 12.0575C29.2446 11.8132 29.1488 11.6055 28.9456 11.4344C28.7423 11.2633 28.4552 11.1289 28.0724 11.0312C27.6659 10.9334 27.2472 10.8357 26.7927 10.7501C26.3382 10.6646 25.9197 10.5547 25.525 10.4202C24.616 10.1148 23.9702 9.71158 23.5755 9.19839C23.1809 8.68522 22.9775 8.04985 22.9775 7.28009C22.9775 6.25372 23.42 5.42287 24.3171 4.77528C25.214 4.1277 26.3623 3.81002 27.7735 3.81002C28.4791 3.81002 29.1847 3.88334 29.8665 4.01773C30.5602 4.16436 31.1582 4.33542 31.6605 4.54313V7.07237H31.3614C30.931 6.71803 30.4047 6.42479 29.7707 6.18042C29.1488 5.94826 28.503 5.82609 27.8452 5.82609C27.618 5.82609 27.3907 5.83831 27.1516 5.87495C26.9243 5.91161 26.709 5.9727 26.4938 6.05823C26.3024 6.13155 26.1469 6.24151 26.0154 6.38813C25.8837 6.53476 25.812 6.70581 25.812 6.90132C25.812 7.19456 25.9197 7.41449 26.1349 7.57333C26.3502 7.73217 26.7569 7.86658 27.3668 8.00099C27.7615 8.0865 28.1443 8.15982 28.503 8.24535C28.8619 8.33088 29.2566 8.42862 29.6751 8.57525C30.5004 8.85627 31.1103 9.22283 31.4931 9.69936C31.9116 10.1637 32.103 10.7868 32.103 11.5444ZM41.7667 14.99H34.0046V4.01774H41.7667V6.14377H36.7555V8.03764H41.408V10.1637H36.7555V12.8762H41.7667V14.99ZM50.1148 7.37783C50.1148 7.09681 50.055 6.86466 49.9474 6.66916C49.8398 6.47367 49.6484 6.31482 49.3733 6.20486C49.1819 6.13155 48.9667 6.08267 48.7154 6.05823C48.4643 6.04601 48.1773 6.0338 47.8424 6.0338H46.8378V8.99068H47.687C48.1295 8.99068 48.5002 8.96624 48.7992 8.92959C49.0982 8.88071 49.3494 8.78297 49.5527 8.62413C49.744 8.46528 49.8876 8.30645 49.9713 8.12316C50.0789 7.92767 50.1148 7.68331 50.1148 7.37783ZM54.4444 14.99H51.0597L48.1295 10.9579H46.8497V14.9778H44.0989V4.01774H48.7395C49.3733 4.01774 49.9235 4.05439 50.378 4.1277C50.8324 4.20102 51.263 4.35986 51.6577 4.60423C52.0642 4.84859 52.3872 5.16628 52.6145 5.55727C52.8537 5.94826 52.9732 6.43701 52.9732 7.02349C52.9732 7.82992 52.7939 8.48972 52.4231 9.0029C52.0524 9.51608 51.5261 9.94372 50.8443 10.2736L54.4444 14.99ZM60.5081 15.1977C59.7067 15.1977 58.9772 15.0755 58.2955 14.8312C57.6258 14.5868 57.0396 14.2325 56.5494 13.7559C56.059 13.2794 55.6882 12.6807 55.4251 11.972C55.1619 11.2633 55.0304 10.4325 55.0304 9.50387C55.0304 8.63635 55.1619 7.84214 55.4132 7.14568C55.6643 6.43701 56.0351 5.82609 56.5254 5.32512C56.9919 4.83638 57.566 4.4576 58.2596 4.20102C58.9533 3.93221 59.7067 3.7978 60.5201 3.7978C60.9746 3.7978 61.3811 3.82224 61.74 3.87112C62.0988 3.91999 62.4336 3.99331 62.7446 4.07883C63.0675 4.17658 63.3546 4.27433 63.6178 4.39652C63.8808 4.50648 64.108 4.61645 64.3114 4.7142V7.37783H63.9885C63.8569 7.25565 63.6894 7.12124 63.4861 6.96241C63.2828 6.80356 63.0555 6.64472 62.7925 6.48589C62.5294 6.32704 62.2423 6.19264 61.9313 6.08267C61.6204 5.9727 61.2974 5.92383 60.9387 5.92383C60.544 5.92383 60.1851 5.98492 59.8264 6.10711C59.4795 6.2293 59.1566 6.43701 58.8457 6.73025C58.5586 7.01127 58.3314 7.37783 58.164 7.84214C57.9845 8.30645 57.9008 8.86849 57.9008 9.5283C57.9008 10.2125 57.9965 10.7868 58.1879 11.2511C58.3792 11.7154 58.6185 12.082 58.9055 12.3386C59.1924 12.6074 59.5274 12.8029 59.8862 12.9128C60.2449 13.0228 60.6038 13.0839 60.9507 13.0839C61.2855 13.0839 61.6204 13.035 61.9552 12.925C62.2901 12.8273 62.5892 12.6807 62.8642 12.5096C63.1035 12.363 63.3187 12.2164 63.522 12.0575C63.7254 11.8987 63.8928 11.7521 64.0243 11.6421H64.3114V14.269C64.0482 14.3912 63.7852 14.5134 63.5459 14.6112C63.2948 14.7211 63.0436 14.8068 62.7686 14.8923C62.4217 14.99 62.0869 15.0755 61.7758 15.1244C61.4648 15.1733 61.0463 15.1977 60.5081 15.1977ZM76.7857 9.50387C76.7857 11.2511 76.2953 12.644 75.3147 13.6704C74.3339 14.6967 72.9824 15.2099 71.2482 15.2099C69.526 15.2099 68.1626 14.6967 67.1818 13.6704C66.2011 12.644 65.7107 11.2511 65.7107 9.50387C65.7107 7.74439 66.2011 6.35148 67.1818 5.32512C68.1626 4.29877 69.514 3.78558 71.2482 3.78558C72.9704 3.78558 74.322 4.29877 75.3026 5.32512C76.2953 6.35148 76.7857 7.74439 76.7857 9.50387ZM73.1139 12.2775C73.3771 11.9476 73.5804 11.5444 73.712 11.0923C73.8436 10.6402 73.9033 10.1026 73.9033 9.49165C73.9033 8.83184 73.8316 8.26979 73.676 7.80548C73.5325 7.34119 73.3293 6.97463 73.09 6.68138C72.8389 6.38813 72.5639 6.1682 72.2409 6.04602C71.9179 5.91161 71.5831 5.85052 71.2362 5.85052C70.8895 5.85052 70.5545 5.91161 70.2435 6.04602C69.9326 6.18042 69.6455 6.38813 69.3944 6.68138C69.1552 6.96241 68.9638 7.34119 68.8084 7.8177C68.6528 8.30645 68.5811 8.85627 68.5811 9.50387C68.5811 10.1637 68.6528 10.7135 68.7964 11.1778C68.9399 11.6421 69.1312 12.0087 69.3825 12.3019C69.6216 12.5951 69.9087 12.8029 70.2316 12.9373C70.5545 13.0717 70.8895 13.145 71.2482 13.145C71.607 13.145 71.942 13.0717 72.2648 12.9373C72.5878 12.7907 72.8748 12.5829 73.1139 12.2775ZM88.6621 14.99H85.995L81.4381 7.46336V14.99H78.9026V4.01774H82.2156L86.1265 10.2981V4.01774H88.6621V14.99ZM100 11.5444C100 12.6318 99.5576 13.4993 98.6486 14.1835C97.7517 14.8556 96.5318 15.1977 95.0009 15.1977C94.1038 15.1977 93.3384 15.1122 92.6687 14.9534C92.0109 14.7945 91.3889 14.5868 90.8148 14.3424V11.7032H91.1138C91.6879 12.1675 92.3218 12.5341 93.0394 12.7784C93.7451 13.035 94.4268 13.1572 95.0846 13.1572C95.252 13.1572 95.4793 13.145 95.7423 13.1206C96.0175 13.0961 96.2447 13.0472 96.4121 12.9739C96.6274 12.8884 96.7948 12.7784 96.9383 12.644C97.0819 12.5096 97.1417 12.3141 97.1417 12.0575C97.1417 11.8132 97.0461 11.6055 96.8427 11.4344C96.6394 11.2633 96.3523 11.1289 95.9696 11.0312C95.563 10.9334 95.1443 10.8357 94.6898 10.7501C94.2353 10.6646 93.8168 10.5547 93.4221 10.4202C92.5131 10.1148 91.8673 9.71158 91.4727 9.19841C91.078 8.68522 90.8746 8.04986 90.8746 7.28009C90.8746 6.25374 91.3171 5.42287 92.2142 4.77529C93.1111 4.1277 94.2594 3.81002 95.6706 3.81002C96.3762 3.81002 97.0819 3.88334 97.7636 4.01774C98.4573 4.16436 99.0553 4.33542 99.5576 4.54313V7.07237H99.2587C98.8281 6.71803 98.3018 6.42479 97.668 6.18042C97.0461 5.94826 96.4001 5.82609 95.7423 5.82609C95.5151 5.82609 95.2878 5.83831 95.0487 5.87496C94.8215 5.91162 94.6061 5.9727 94.3909 6.05823C94.1996 6.13155 94.044 6.24152 93.9125 6.38813C93.7809 6.53476 93.7092 6.70581 93.7092 6.90132C93.7092 7.19456 93.8168 7.41449 94.0321 7.57333C94.2474 7.73218 94.654 7.86658 95.2639 8.00099C95.6586 8.08652 96.0414 8.15982 96.4001 8.24535C96.759 8.33088 97.1537 8.42864 97.5722 8.57525C98.3975 8.85629 99.0074 9.22284 99.3902 9.69936C99.8087 10.1637 100 10.7868 100 11.5444Z" fill="#2E3A4C"/>
<path fill-rule="evenodd" clip-rule="evenodd" d="M15.0852 2.73493C17.8958 5.37413 18.8407 9.66285 17.1422 13.3773C15.0493 17.9714 9.69117 19.963 5.19419 17.8248C0.697224 15.6866 -1.25226 10.2127 0.840744 5.61851C2.53907 1.90407 6.34236 -0.0997681 10.1098 0.388973L9.57157 4.67768L9.53568 4.94648C7.65797 4.70211 5.75631 5.71625 4.90715 7.56125C3.85467 9.85834 4.8354 12.5953 7.08389 13.6584C9.33237 14.7335 12.0114 13.7316 13.0519 11.4345C13.901 9.57731 13.4227 7.42685 12.0114 6.10724L12.1789 5.92397L15.0852 2.73493Z" fill="#BA2934"/>
</svg>
